<svg id="Layer_1" data-name="Layer 1" xmlns="http://www.w3.org/2000/svg" viewBox="0 0 180.92 26.94"><defs><style>.cls-1{fill:#526370;}.cls-2{fill:#b4a533;}.cls-3{fill:#7ba296;}.cls-4{fill:#e27d26;}.cls-5{fill:#639ec8;}.cls-6{fill:#b4a432;}</style></defs><title>graphic_element</title><path class="cls-1" d="M78.88,12.76l.59-.7a4,4,0,0,0,2.88,1.19c1.13,0,1.87-.6,1.87-1.43v0c0-.78-.42-1.23-2.18-1.6-1.93-.42-2.82-1-2.82-2.42v0A2.48,2.48,0,0,1,82,5.46a4.4,4.4,0,0,1,3,1l-.55.74A3.68,3.68,0,0,0,82,6.31c-1.09,0-1.78.6-1.78,1.36v0c0,.8.43,1.24,2.28,1.63s2.73,1.1,2.73,2.38v0c0,1.44-1.2,2.38-2.87,2.38A5,5,0,0,1,78.88,12.76Z" transform="translate(-1.82 -1.08)"/><path class="cls-1" d="M86,12.18v0c0-1.33,1.08-2,2.65-2a6.7,6.7,0,0,1,1.9.26V10.2c0-1.1-.67-1.68-1.84-1.68A4.24,4.24,0,0,0,86.85,9l-.28-.76a5.16,5.16,0,0,1,2.26-.53,2.72,2.72,0,0,1,2,.69,2.45,2.45,0,0,1,.65,1.82V14h-.91v-.93a2.7,2.7,0,0,1-2.23,1.06A2.08,2.08,0,0,1,86,12.18Zm4.56-.48v-.58a6.45,6.45,0,0,0-1.81-.26c-1.15,0-1.81.5-1.81,1.25v0c0,.78.72,1.24,1.56,1.24A1.86,1.86,0,0,0,90.58,11.7Z" transform="translate(-1.82 -1.08)"/><path class="cls-1" d="M93.32,8.59h-.85v-.8h.85V7.25a2.19,2.19,0,0,1,.54-1.6,1.83,1.83,0,0,1,1.33-.48,2.76,2.76,0,0,1,1,.16v.8a3.32,3.32,0,0,0-.9-.15c-.72,0-1.08.43-1.08,1.32v.5h2v.79h-2V14h-.92Z" transform="translate(-1.82 -1.08)"/><path class="cls-1" d="M99.4,13.32a2.59,2.59,0,0,0,2-.88l.57.52a3.21,3.21,0,0,1-2.55,1.16,3.09,3.09,0,0,1-3.1-3.24,3.06,3.06,0,0,1,3-3.23c1.83,0,2.89,1.46,2.89,3.28,0,.09,0,.18,0,.33H97.22A2.17,2.17,0,0,0,99.4,13.32Zm1.81-2.81a2,2,0,0,0-2-2.08,2.13,2.13,0,0,0-2,2.08Z" transform="translate(-1.82 -1.08)"/><path class="cls-1" d="M105.63,5.58h6.07v.87h-5.12V9.31h4.58v.87h-4.58v2.93h5.18V14h-6.13Z" transform="translate(-1.82 -1.08)"/><path class="cls-1" d="M113.05,7.78H114V8.86a2.36,2.36,0,0,1,2.12-1.21,2.26,2.26,0,0,1,2.38,2.48V14h-.93V10.36a1.65,1.65,0,0,0-1.71-1.87A1.82,1.82,0,0,0,114,10.43V14h-.92Z" transform="translate(-1.82 -1.08)"/><path class="cls-1" d="M119.36,7.78h1l2.09,5.14,2.09-5.14h1L122.86,14h-.81Z" transform="translate(-1.82 -1.08)"/><path class="cls-1" d="M126.57,5.4h1.06v1h-1.06Zm.06,2.38h.92V14h-.92Z" transform="translate(-1.82 -1.08)"/><path class="cls-1" d="M129.23,7.78h.93V9.4a2.65,2.65,0,0,1,2.53-1.73v1h-.07c-1.36,0-2.46,1-2.46,2.84V14h-.93Z" transform="translate(-1.82 -1.08)"/><path class="cls-1" d="M133,10.91v0a3.24,3.24,0,0,1,6.47,0v0a3.22,3.22,0,0,1-3.25,3.24A3.18,3.18,0,0,1,133,10.91Zm5.52,0v0a2.35,2.35,0,0,0-2.3-2.42,2.29,2.29,0,0,0-2.27,2.4v0a2.32,2.32,0,0,0,2.29,2.41A2.28,2.28,0,0,0,138.52,10.91Z" transform="translate(-1.82 -1.08)"/><path class="cls-1" d="M140.67,7.78h.92V8.86a2.36,2.36,0,0,1,2.13-1.21,2.26,2.26,0,0,1,2.37,2.48V14h-.92V10.36a1.65,1.65,0,0,0-1.72-1.87,1.82,1.82,0,0,0-1.86,1.94V14h-.92Z" transform="translate(-1.82 -1.08)"/><path class="cls-1" d="M147.59,7.78h.93v1a2.27,2.27,0,0,1,2-1.17,2.1,2.1,0,0,1,2,1.23,2.48,2.48,0,0,1,2.18-1.23A2.23,2.23,0,0,1,157,10.14V14h-.93V10.36c0-1.2-.6-1.87-1.6-1.87a1.73,1.73,0,0,0-1.72,1.91V14h-.91V10.33c0-1.16-.61-1.84-1.6-1.84a1.79,1.79,0,0,0-1.72,1.95V14h-.93Z" transform="translate(-1.82 -1.08)"/><path class="cls-1" d="M161.27,13.32a2.59,2.59,0,0,0,2-.88l.57.52a3.21,3.21,0,0,1-2.55,1.16,3.09,3.09,0,0,1-3.1-3.24,3.06,3.06,0,0,1,3-3.23c1.83,0,2.89,1.46,2.89,3.28,0,.09,0,.18,0,.33h-4.92A2.17,2.17,0,0,0,161.27,13.32Zm1.81-2.81a2,2,0,0,0-2-2.08,2.13,2.13,0,0,0-2,2.08Z" transform="translate(-1.82 -1.08)"/><path class="cls-1" d="M165.17,7.78h.93V8.86a2.35,2.35,0,0,1,2.12-1.21,2.26,2.26,0,0,1,2.38,2.48V14h-.93V10.36A1.65,1.65,0,0,0,168,8.49a1.82,1.82,0,0,0-1.86,1.94V14h-.93Z" transform="translate(-1.82 -1.08)"/><path class="cls-1" d="M172.18,12.34V8.59h-.86V7.78h.86V5.91h.93V7.78h2v.81h-2v3.63a.92.92,0,0,0,1,1,1.92,1.92,0,0,0,.9-.22v.79a2.32,2.32,0,0,1-1.12.27A1.58,1.58,0,0,1,172.18,12.34Z" transform="translate(-1.82 -1.08)"/><path class="cls-1" d="M175.72,13.19l.47-.66a3.66,3.66,0,0,0,2.15.79c.74,0,1.28-.39,1.28-1v0c0-.62-.73-.86-1.55-1.09-1-.28-2-.61-2-1.75v0a1.88,1.88,0,0,1,2.11-1.77,4.2,4.2,0,0,1,2.23.68l-.42.7a3.49,3.49,0,0,0-1.83-.6c-.73,0-1.2.38-1.2.9v0c0,.59.77.82,1.59,1.07s2,.66,2,1.78v0a2,2,0,0,1-2.21,1.86A4.3,4.3,0,0,1,175.72,13.19Z" transform="translate(-1.82 -1.08)"/><path class="cls-1" d="M181.64,12.72h1.1V14h-1.1Z" transform="translate(-1.82 -1.08)"/><path class="cls-1" d="M79.44,17.38h.94v3.73h4.85V17.38h.94v8.4h-.94V22H80.38v3.78h-.94Z" transform="translate(-1.82 -1.08)"/><path class="cls-1" d="M90.43,25.12a2.55,2.55,0,0,0,1.95-.88l.58.52a3.23,3.23,0,0,1-2.56,1.16,3.09,3.09,0,0,1-3.09-3.24,3.06,3.06,0,0,1,3-3.24c1.84,0,2.89,1.47,2.89,3.29,0,.09,0,.18,0,.33H88.24A2.17,2.17,0,0,0,90.43,25.12Zm1.81-2.81a2,2,0,0,0-2-2.09,2.14,2.14,0,0,0-2,2.09Z" transform="translate(-1.82 -1.08)"/><path class="cls-1" d="M93.86,24v0c0-1.33,1.08-2,2.65-2a6.68,6.68,0,0,1,1.89.26V22c0-1.1-.67-1.68-1.83-1.68a4.34,4.34,0,0,0-1.88.44L94.41,20a5.09,5.09,0,0,1,2.26-.53,2.78,2.78,0,0,1,2,.68A2.49,2.49,0,0,1,99.32,22v3.79H98.4v-.93a2.7,2.7,0,0,1-2.23,1.06A2.08,2.08,0,0,1,93.86,24Zm4.56-.48v-.58a6.51,6.51,0,0,0-1.81-.26c-1.16,0-1.82.5-1.82,1.25v0c0,.78.72,1.24,1.56,1.24A1.87,1.87,0,0,0,98.42,23.5Z" transform="translate(-1.82 -1.08)"/><path class="cls-1" d="M100.89,17h.92v8.76h-.92Z" transform="translate(-1.82 -1.08)"/><path class="cls-1" d="M103.82,24.13V20.39H103v-.81h.87V17.71h.92v1.87h2v.81h-2V24a.92.92,0,0,0,1.05,1,1.92,1.92,0,0,0,.9-.22v.79a2.35,2.35,0,0,1-1.12.27A1.58,1.58,0,0,1,103.82,24.13Z" transform="translate(-1.82 -1.08)"/><path class="cls-1" d="M107.87,17h.93v3.64a2.33,2.33,0,0,1,2.12-1.22,2.27,2.27,0,0,1,2.38,2.49v3.85h-.93V22.16a1.65,1.65,0,0,0-1.71-1.88,1.83,1.83,0,0,0-1.86,1.95v3.55h-.93Z" transform="translate(-1.82 -1.08)"/><path class="cls-1" d="M114.2,27.42l.31-.73a1.91,1.91,0,0,0,1,.23c.55,0,.9-.29,1.27-1.17l-2.81-6.17h1l2.26,5.17,2-5.17h1l-2.6,6.4c-.53,1.29-1.13,1.75-2.06,1.75A2.86,2.86,0,0,1,114.2,27.42Z" transform="translate(-1.82 -1.08)"/><path class="cls-1" d="M122.14,17.38h1l2.4,7,2.31-7h.77l2.31,7,2.4-7h1l-3,8.46h-.8L128.25,19l-2.32,6.81h-.79Z" transform="translate(-1.82 -1.08)"/><path class="cls-1" d="M134.11,22.71v0a3.23,3.23,0,0,1,6.46,0v0a3.22,3.22,0,0,1-3.25,3.24A3.17,3.17,0,0,1,134.11,22.71Zm5.51,0v0a2.34,2.34,0,0,0-2.3-2.42,2.29,2.29,0,0,0-2.27,2.4v0a2.33,2.33,0,0,0,2.29,2.41A2.28,2.28,0,0,0,139.62,22.71Z" transform="translate(-1.82 -1.08)"/><path class="cls-1" d="M141.77,19.58h.93V21.2a2.63,2.63,0,0,1,2.53-1.73v1h-.07c-1.36,0-2.46,1-2.46,2.85v2.47h-.93Z" transform="translate(-1.82 -1.08)"/><path class="cls-1" d="M146.17,17h.92v6.05l3.35-3.49h1.15L149,22.24l2.68,3.54h-1.1l-2.22-2.89-1.26,1.27v1.62h-.92Z" transform="translate(-1.82 -1.08)"/><path class="cls-1" d="M154.78,25.12a2.59,2.59,0,0,0,2-.88l.57.52a3.21,3.21,0,0,1-2.55,1.16,3.09,3.09,0,0,1-3.1-3.24,3.06,3.06,0,0,1,3-3.24c1.83,0,2.89,1.47,2.89,3.29,0,.09,0,.18,0,.33H152.6A2.17,2.17,0,0,0,154.78,25.12Zm1.81-2.81a2,2,0,0,0-2-2.09,2.14,2.14,0,0,0-2,2.09Z" transform="translate(-1.82 -1.08)"/><path class="cls-1" d="M158.68,19.58h.93V21.2a2.63,2.63,0,0,1,2.53-1.73v1h-.08c-1.35,0-2.45,1-2.45,2.85v2.47h-.93Z" transform="translate(-1.82 -1.08)"/><path class="cls-1" d="M162.56,25l.47-.66a3.63,3.63,0,0,0,2.14.79c.75,0,1.29-.39,1.29-1v0c0-.62-.74-.86-1.55-1.09-1-.28-2-.61-2-1.75v0A1.88,1.88,0,0,1,165,19.47a4.26,4.26,0,0,1,2.23.68l-.42.7a3.55,3.55,0,0,0-1.84-.6c-.73,0-1.19.38-1.19.9v0c0,.59.76.82,1.59,1.07s2,.66,2,1.77v0a2,2,0,0,1-2.21,1.86A4.27,4.27,0,0,1,162.56,25Z" transform="translate(-1.82 -1.08)"/><path class="cls-1" d="M168.47,24.52h1.11v1.26h-1.11Z" transform="translate(-1.82 -1.08)"/><path class="cls-2" d="M32.24,22.9a1.54,1.54,0,0,0,0-2.19l0,0a1.54,1.54,0,0,0-2.19,0l-.17.17-.16-.17a1.55,1.55,0,0,0-2.2,0l0,0a1.56,1.56,0,0,0,0,2.19l2.38,2.38Z" transform="translate(-1.82 -1.08)"/><path class="cls-3" d="M62.74,22.9a1.54,1.54,0,0,0,0-2.19l0,0a1.54,1.54,0,0,0-2.19,0l-.17.17-.16-.17a1.55,1.55,0,0,0-2.2,0l0,0a1.56,1.56,0,0,0,0,2.19l2.38,2.38Z" transform="translate(-1.82 -1.08)"/><path class="cls-1" d="M37.51,25.9v-.13a7.62,7.62,0,1,0-15.23,0v.15H19.46v-.13a10.44,10.44,0,1,1,20.87,0v.16H37.51Z" transform="translate(-1.82 -1.08)"/><path class="cls-1" d="M68,25.9v-.13a7.62,7.62,0,1,0-15.24,0v.16H50v-.13a10.44,10.44,0,1,1,20.87,0v.16H68Z" transform="translate(-1.82 -1.08)"/><path class="cls-4" d="M17.58,24.26a1.9,1.9,0,0,0,0-2.67l0,0a1.88,1.88,0,0,0-2.67,0l-.2.2-.2-.2a1.87,1.87,0,0,0-2.66,0l0,0a1.88,1.88,0,0,0,0,2.67l2.89,2.89Z" transform="translate(-1.82 -1.08)"/><path class="cls-1" d="M24.11,28V27.9a9.44,9.44,0,1,0-18.87,0V28H1.82V27.9a12.86,12.86,0,1,1,25.71,0V28H24.11Z" transform="translate(-1.82 -1.08)"/><path class="cls-4" d="M17.39,7.59a2.71,2.71,0,1,0-5.41,0,1,1,0,0,0,0,.17h5.37A1,1,0,0,0,17.39,7.59Z" transform="translate(-1.82 -1.08)"/><path class="cls-5" d="M47.86,7.59a2.71,2.71,0,1,0-5.42,0c0,.06,0,.11,0,.17h5.38C47.84,7.7,47.86,7.65,47.86,7.59Z" transform="translate(-1.82 -1.08)"/><path class="cls-5" d="M48,24.29a1.87,1.87,0,0,0,0-2.66l0,0a1.9,1.9,0,0,0-2.67,0l-.2.2-.2-.2a1.9,1.9,0,0,0-2.67,0l0,0a1.89,1.89,0,0,0,0,2.66l2.9,2.9Z" transform="translate(-1.82 -1.08)"/><path class="cls-1" d="M54.57,28V27.9a9.43,9.43,0,1,0-18.86,0V28H32.3V27.9a12.86,12.86,0,1,1,25.71,0V28l-.13,0Z" transform="translate(-1.82 -1.08)"/><path class="cls-1" d="M45.18,14.27a6.6,6.6,0,1,1,6.6-6.59A6.6,6.6,0,0,1,45.18,14.27Zm0-10.12a3.53,3.53,0,1,0,3.53,3.53A3.53,3.53,0,0,0,45.18,4.15Z" transform="translate(-1.82 -1.08)"/><path class="cls-1" d="M29.87,14.61a5.37,5.37,0,1,1,5.36-5.37A5.37,5.37,0,0,1,29.87,14.61Zm0-8.2A2.83,2.83,0,1,0,32.7,9.24,2.83,2.83,0,0,0,29.87,6.41Z" transform="translate(-1.82 -1.08)"/><path class="cls-1" d="M14.69,14.27a6.6,6.6,0,1,1,6.59-6.59A6.6,6.6,0,0,1,14.69,14.27Zm0-10.12a3.53,3.53,0,1,0,3.52,3.53A3.53,3.53,0,0,0,14.69,4.15Z" transform="translate(-1.82 -1.08)"/><path class="cls-1" d="M60.46,14.61a5.37,5.37,0,1,1,5.37-5.37A5.38,5.38,0,0,1,60.46,14.61Zm0-8.2a2.83,2.83,0,1,0,2.83,2.83A2.83,2.83,0,0,0,60.46,6.41Z" transform="translate(-1.82 -1.08)"/><path class="cls-6" d="M32.07,9a2.18,2.18,0,0,0-4.35,0,.59.59,0,0,0,0,.13h4.32S32.07,9.08,32.07,9Z" transform="translate(-1.82 -1.08)"/><path class="cls-3" d="M62.64,9a2.18,2.18,0,0,0-4.36,0s0,.09,0,.13h4.32S62.64,9.08,62.64,9Z" transform="translate(-1.82 -1.08)"/></svg>