<?xml version="1.0" encoding="UTF-8"?>
<svg width="249px" height="39px" viewBox="0 0 248 37" version="1.1" xmlns="http://www.w3.org/2000/svg" xmlns:xlink="http://www.w3.org/1999/xlink">
    <!-- Generator: sketchtool 51 (57462) - http://www.bohemiancoding.com/sketch -->
    <title>2A275957-0930-4A92-8156-BE0AA849FE37</title>
    <desc>Created with sketchtool.</desc>
    <defs></defs>
    <g id="Styleguide" stroke="none" stroke-width="1" fill="none" fill-rule="evenodd">
        <g transform="translate(-850.000000, -4769.000000)">
            <g id="Icons" transform="translate(80.000000, 4273.000000)">
                <g id="UI-Icons/Graphic-Element" transform="translate(770.000000, 496.000000)">
                    <g id="GraphicElement_horizontal_rgb">
                        <g id="Group" transform="translate(105.191257, 5.464481)" fill="#526370" fill-rule="nonzero">
                            <path d="M0.229508197,10.6557377 L1.04918033,9.69945355 C2.27868852,10.7923497 3.3715847,11.3387978 5.01092896,11.3387978 C6.5136612,11.3387978 7.60655738,10.5191257 7.60655738,9.42622951 C7.60655738,8.33333333 7.06010929,7.78688525 4.6010929,7.24043716 C2.00546448,6.69398907 0.775956284,5.87431694 0.775956284,3.96174863 C0.775956284,2.18579235 2.41530055,0.819672131 4.6010929,0.819672131 C6.24043716,0.819672131 7.46994536,1.2295082 8.69945355,2.18579235 L7.87978142,3.1420765 C6.78688525,2.32240437 5.69398907,1.91256831 4.6010929,1.91256831 C3.09836066,1.91256831 2.1420765,2.73224044 2.1420765,3.82513661 C2.1420765,4.91803279 2.68852459,5.46448087 5.28415301,6.01092896 C7.87978142,6.55737705 8.9726776,7.5136612 8.9726776,9.28961749 C8.9726776,11.2021858 7.33333333,12.568306 5.01092896,12.568306 C3.09836066,12.431694 1.59562842,11.8852459 0.229508197,10.6557377 Z" id="Shape"></path>
                            <path d="M9.92896175,9.83606557 C9.92896175,7.92349727 11.431694,6.96721311 13.6174863,6.96721311 C14.7103825,6.96721311 15.3934426,7.10382514 16.2131148,7.37704918 L16.2131148,7.10382514 C16.2131148,5.6010929 15.2568306,4.78142077 13.7540984,4.78142077 C12.7978142,4.78142077 11.9781421,5.05464481 11.1584699,5.32786885 L10.7486339,4.23497268 C11.704918,3.82513661 12.5245902,3.55191257 13.8907104,3.55191257 C15.1202186,3.55191257 16.0765027,3.82513661 16.6229508,4.50819672 C17.1693989,5.05464481 17.442623,5.87431694 17.442623,6.96721311 L17.442623,12.295082 L16.2131148,12.295082 L16.2131148,11.0655738 C15.6666667,11.8852459 14.7103825,12.568306 13.2076503,12.568306 C11.568306,12.431694 9.92896175,11.6120219 9.92896175,9.83606557 Z M16.2131148,9.15300546 L16.2131148,8.33333333 C15.5300546,8.19672131 14.7103825,7.92349727 13.7540984,7.92349727 C12.1147541,7.92349727 11.295082,8.60655738 11.295082,9.56284153 C11.295082,10.6557377 12.2513661,11.2021858 13.4808743,11.2021858 C14.9836066,11.4754098 16.2131148,10.5191257 16.2131148,9.15300546 Z" id="Shape"></path>
                            <path d="M19.9016393,4.91803279 L18.6721311,4.91803279 L18.6721311,3.82513661 L19.9016393,3.82513661 L19.9016393,3.00546448 C19.9016393,2.04918033 20.1748634,1.36612022 20.5846995,0.819672131 C20.9945355,0.409836066 21.6775956,0.136612022 22.3606557,0.136612022 C22.9071038,0.136612022 23.3169399,0.136612022 23.726776,0.409836066 L23.726776,1.50273224 C23.4535519,1.36612022 23.0437158,1.36612022 22.6338798,1.36612022 C21.6775956,1.36612022 21.1311475,1.91256831 21.1311475,3.1420765 L21.1311475,3.82513661 L23.863388,3.82513661 L23.863388,4.91803279 L21.1311475,4.91803279 L21.1311475,12.295082 L19.9016393,12.295082 L19.9016393,4.91803279 Z" id="Shape"></path>
                            <path d="M28.2349727,11.3387978 C29.4644809,11.3387978 30.284153,10.9289617 30.9672131,10.1092896 L31.7868852,10.7923497 C30.9672131,11.7486339 29.8743169,12.431694 28.2349727,12.431694 C25.9125683,12.431694 24,10.6557377 24,8.06010929 C24,5.6010929 25.7759563,3.68852459 28.0983607,3.68852459 C30.557377,3.68852459 32.0601093,5.73770492 32.0601093,8.19672131 C32.0601093,8.33333333 32.0601093,8.46994536 32.0601093,8.60655738 L25.3661202,8.60655738 C25.5027322,10.3825137 26.7322404,11.3387978 28.2349727,11.3387978 Z M30.6939891,7.5136612 C30.557377,6.01092896 29.6010929,4.64480874 27.9617486,4.64480874 C26.4590164,4.64480874 25.3661202,5.87431694 25.2295082,7.5136612 L30.6939891,7.5136612 Z" id="Shape"></path>
                            <polygon id="Shape" points="36.704918 0.819672131 45.0382514 0.819672131 45.0382514 2.04918033 38.0710383 2.04918033 38.0710383 6.01092896 44.3551913 6.01092896 44.3551913 7.24043716 38.0710383 7.24043716 38.0710383 11.2021858 45.1748634 11.2021858 45.1748634 12.295082 36.8415301 12.295082 36.8415301 0.819672131"></polygon>
                            <path d="M46.8142077,3.82513661 L48.0437158,3.82513661 L48.0437158,5.32786885 C48.5901639,4.3715847 49.5464481,3.68852459 50.9125683,3.68852459 C52.9617486,3.68852459 54.1912568,5.05464481 54.1912568,7.10382514 L54.1912568,12.295082 L52.9617486,12.295082 L52.9617486,7.37704918 C52.9617486,5.73770492 52.1420765,4.78142077 50.6393443,4.78142077 C49.136612,4.78142077 48.0437158,5.87431694 48.0437158,7.37704918 L48.0437158,12.295082 L46.8142077,12.295082 L46.8142077,3.82513661 Z" id="Shape"></path>
                            <polygon id="Shape" points="55.557377 3.82513661 56.9234973 3.82513661 59.7923497 10.7923497 62.6612022 3.82513661 64.0273224 3.82513661 60.3387978 12.295082 59.1092896 12.295082"></polygon>
                            <path d="M65.3934426,0.546448087 L66.8961749,0.546448087 L66.8961749,1.91256831 L65.3934426,1.91256831 L65.3934426,0.546448087 Z M65.3934426,3.82513661 L66.6229508,3.82513661 L66.6229508,12.295082 L65.3934426,12.295082 L65.3934426,3.82513661 Z" id="Shape"></path>
                            <path d="M68.9453552,3.82513661 L70.1748634,3.82513661 L70.1748634,6.01092896 C70.8579235,4.64480874 72.0874317,3.55191257 73.5901639,3.68852459 L73.5901639,5.05464481 L73.4535519,5.05464481 C71.5409836,5.05464481 70.0382514,6.42076503 70.0382514,8.87978142 L70.0382514,12.295082 L68.8087432,12.295082 L68.8087432,3.82513661 L68.9453552,3.82513661 Z" id="Shape"></path>
                            <path d="M74.136612,8.06010929 C74.136612,5.6010929 76.0491803,3.55191257 78.5081967,3.55191257 C81.1038251,3.55191257 82.8797814,5.6010929 82.8797814,7.92349727 C82.8797814,10.3825137 80.9672131,12.295082 78.3715847,12.295082 C76.0491803,12.431694 74.136612,10.5191257 74.136612,8.06010929 Z M81.6502732,8.06010929 C81.6502732,6.14754098 80.284153,4.78142077 78.5081967,4.78142077 C76.7322404,4.78142077 75.3661202,6.28415301 75.3661202,8.06010929 C75.3661202,9.83606557 76.7322404,11.3387978 78.5081967,11.3387978 C80.420765,11.3387978 81.6502732,9.83606557 81.6502732,8.06010929 Z" id="Shape"></path>
                            <path d="M84.6557377,3.82513661 L85.8852459,3.82513661 L85.8852459,5.32786885 C86.431694,4.3715847 87.3879781,3.68852459 88.7540984,3.68852459 C90.8032787,3.68852459 92.0327869,5.05464481 92.0327869,7.10382514 L92.0327869,12.295082 L90.8032787,12.295082 L90.8032787,7.37704918 C90.8032787,5.73770492 89.9836066,4.78142077 88.4808743,4.78142077 C86.9781421,4.78142077 85.8852459,5.87431694 85.8852459,7.37704918 L85.8852459,12.295082 L84.6557377,12.295082 L84.6557377,3.82513661 Z" id="Shape"></path>
                            <path d="M94.0819672,3.82513661 L95.3114754,3.82513661 L95.3114754,5.19125683 C95.8579235,4.3715847 96.6775956,3.55191257 98.0437158,3.55191257 C99.4098361,3.55191257 100.36612,4.23497268 100.775956,5.19125683 C101.322404,4.23497268 102.278689,3.55191257 103.781421,3.55191257 C105.693989,3.55191257 106.923497,4.91803279 106.923497,6.96721311 L106.923497,12.295082 L105.693989,12.295082 L105.693989,7.37704918 C105.693989,5.73770492 104.874317,4.78142077 103.508197,4.78142077 C102.278689,4.78142077 101.185792,5.73770492 101.185792,7.37704918 L101.185792,12.295082 L99.9562842,12.295082 L99.9562842,7.37704918 C99.9562842,5.73770492 99.136612,4.91803279 97.7704918,4.91803279 C96.4043716,4.91803279 95.4480874,6.01092896 95.4480874,7.65027322 L95.4480874,12.295082 L94.2185792,12.295082 L94.2185792,3.82513661 L94.0819672,3.82513661 Z" id="Shape"></path>
                            <path d="M112.797814,11.3387978 C114.027322,11.3387978 114.846995,10.9289617 115.530055,10.1092896 L116.349727,10.7923497 C115.530055,11.7486339 114.437158,12.431694 112.797814,12.431694 C110.47541,12.431694 108.562842,10.6557377 108.562842,8.06010929 C108.562842,5.6010929 110.338798,3.68852459 112.661202,3.68852459 C115.120219,3.68852459 116.622951,5.73770492 116.622951,8.19672131 C116.622951,8.33333333 116.622951,8.46994536 116.622951,8.60655738 L109.928962,8.60655738 C109.928962,10.3825137 111.295082,11.3387978 112.797814,11.3387978 Z M115.256831,7.5136612 C115.120219,6.01092896 114.163934,4.64480874 112.52459,4.64480874 C111.021858,4.64480874 109.928962,5.87431694 109.79235,7.5136612 L115.256831,7.5136612 Z" id="Shape"></path>
                            <path d="M118.125683,3.82513661 L119.355191,3.82513661 L119.355191,5.32786885 C119.901639,4.3715847 120.857923,3.68852459 122.224044,3.68852459 C124.273224,3.68852459 125.502732,5.05464481 125.502732,7.10382514 L125.502732,12.295082 L124.273224,12.295082 L124.273224,7.37704918 C124.273224,5.73770492 123.453552,4.78142077 121.95082,4.78142077 C120.448087,4.78142077 119.355191,5.87431694 119.355191,7.37704918 L119.355191,12.295082 L118.125683,12.295082 L118.125683,3.82513661 Z" id="Shape"></path>
                            <path d="M127.688525,9.9726776 L127.688525,4.91803279 L126.459016,4.91803279 L126.459016,3.82513661 L127.688525,3.82513661 L127.688525,1.2295082 L128.918033,1.2295082 L128.918033,3.82513661 L131.650273,3.82513661 L131.650273,4.91803279 L128.918033,4.91803279 L128.918033,9.83606557 C128.918033,10.9289617 129.464481,11.2021858 130.284153,11.2021858 C130.693989,11.2021858 131.103825,11.0655738 131.513661,10.9289617 L131.513661,12.0218579 C131.103825,12.295082 130.557377,12.431694 130.010929,12.431694 C128.644809,12.431694 127.688525,11.7486339 127.688525,9.9726776 Z" id="Shape"></path>
                            <path d="M132.469945,11.2021858 L133.153005,10.2459016 C134.10929,10.9289617 135.065574,11.3387978 136.021858,11.3387978 C136.978142,11.3387978 137.797814,10.7923497 137.797814,9.9726776 C137.797814,9.15300546 136.84153,8.7431694 135.748634,8.46994536 C134.382514,8.06010929 132.879781,7.65027322 132.879781,6.01092896 C132.879781,4.50819672 134.10929,3.55191257 135.748634,3.55191257 C136.84153,3.55191257 137.934426,3.96174863 138.754098,4.50819672 L138.20765,5.46448087 C137.387978,4.91803279 136.568306,4.64480874 135.748634,4.64480874 C134.79235,4.64480874 134.10929,5.19125683 134.10929,5.87431694 C134.10929,6.69398907 135.202186,6.96721311 136.295082,7.37704918 C137.661202,7.78688525 139.027322,8.33333333 139.027322,9.83606557 C139.027322,11.4754098 137.661202,12.431694 136.021858,12.431694 C134.79235,12.431694 133.42623,12.0218579 132.469945,11.2021858 Z" id="Shape"></path>
                            <polygon id="Shape" points="140.530055 10.5191257 142.032787 10.5191257 142.032787 12.295082 140.530055 12.295082"></polygon>
                            <polygon id="Shape" points="0.912568306 16.9398907 2.1420765 16.9398907 2.1420765 21.9945355 8.69945355 21.9945355 8.69945355 16.9398907 9.92896175 16.9398907 9.92896175 28.4153005 8.69945355 28.4153005 8.69945355 23.2240437 2.1420765 23.2240437 2.1420765 28.4153005 0.912568306 28.4153005"></polygon>
                            <path d="M15.9398907,27.4590164 C17.1693989,27.4590164 17.989071,27.0491803 18.6721311,26.2295082 L19.4918033,26.9125683 C18.6721311,27.8688525 17.579235,28.5519126 15.9398907,28.5519126 C13.6174863,28.5519126 11.704918,26.7759563 11.704918,24.1803279 C11.704918,21.7213115 13.4808743,19.8087432 15.8032787,19.8087432 C18.2622951,19.8087432 19.7650273,21.8579235 19.7650273,24.3169399 C19.7650273,24.4535519 19.7650273,24.5901639 19.7650273,24.726776 L13.0710383,24.726776 C13.2076503,26.5027322 14.4371585,27.4590164 15.9398907,27.4590164 Z M18.3989071,23.6338798 C18.2622951,22.1311475 17.3060109,20.7650273 15.6666667,20.7650273 C14.1639344,20.7650273 13.0710383,21.9945355 12.9344262,23.6338798 L18.3989071,23.6338798 Z" id="Shape"></path>
                            <path d="M20.7213115,25.9562842 C20.7213115,24.0437158 22.2240437,23.0874317 24.4098361,23.0874317 C25.5027322,23.0874317 26.1857923,23.2240437 27.0054645,23.4972678 L27.0054645,23.2240437 C27.0054645,21.7213115 26.0491803,20.9016393 24.5464481,20.9016393 C23.5901639,20.9016393 22.7704918,21.1748634 21.9508197,21.4480874 L21.4043716,20.4918033 C22.3606557,20.0819672 23.1803279,19.8087432 24.5464481,19.8087432 C25.7759563,19.8087432 26.7322404,20.0819672 27.2786885,20.7650273 C27.8251366,21.3114754 28.0983607,22.1311475 28.0983607,23.2240437 L28.0983607,28.4153005 L26.8688525,28.4153005 L26.8688525,27.1857923 C26.3224044,28.0054645 25.3661202,28.6885246 23.863388,28.6885246 C22.2240437,28.5519126 20.7213115,27.5956284 20.7213115,25.9562842 Z M26.8688525,25.273224 L26.8688525,24.4535519 C26.1857923,24.3169399 25.3661202,24.0437158 24.4098361,24.0437158 C22.7704918,24.0437158 21.9508197,24.726776 21.9508197,25.6830601 C21.9508197,26.7759563 22.9071038,27.3224044 24.136612,27.3224044 C25.6393443,27.5956284 26.8688525,26.6393443 26.8688525,25.273224 Z" id="Shape"></path>
                            <polygon id="Shape" points="30.284153 16.3934426 31.5136612 16.3934426 31.5136612 28.4153005 30.284153 28.4153005"></polygon>
                            <path d="M34.2459016,26.0928962 L34.2459016,21.0382514 L33.1530055,21.0382514 L33.1530055,19.9453552 L34.3825137,19.9453552 L34.3825137,17.3497268 L35.6120219,17.3497268 L35.6120219,19.9453552 L38.3442623,19.9453552 L38.3442623,21.0382514 L35.6120219,21.0382514 L35.6120219,25.9562842 C35.6120219,27.0491803 36.1584699,27.3224044 36.9781421,27.3224044 C37.3879781,27.3224044 37.7978142,27.1857923 38.2076503,27.0491803 L38.2076503,28.1420765 C37.7978142,28.4153005 37.2513661,28.5519126 36.704918,28.5519126 C35.3387978,28.5519126 34.2459016,27.8688525 34.2459016,26.0928962 Z" id="Shape"></path>
                            <path d="M39.8469945,16.3934426 L41.0765027,16.3934426 L41.0765027,21.3114754 C41.6229508,20.3551913 42.579235,19.6721311 43.9453552,19.6721311 C45.9945355,19.6721311 47.2240437,21.0382514 47.2240437,23.0874317 L47.2240437,28.4153005 L45.9945355,28.4153005 L45.9945355,23.4972678 C45.9945355,21.8579235 45.1748634,20.9016393 43.6721311,20.9016393 C42.1693989,20.9016393 41.0765027,21.9945355 41.0765027,23.4972678 L41.0765027,28.4153005 L39.8469945,28.4153005 L39.8469945,16.3934426 Z" id="Shape"></path>
                            <path d="M48.4535519,30.6010929 L48.863388,29.6448087 C49.273224,29.9180328 49.6830601,29.9180328 50.2295082,29.9180328 C51.0491803,29.9180328 51.4590164,29.5081967 52.0054645,28.2786885 L48.1803279,19.8087432 L49.5464481,19.8087432 L52.6885246,26.9125683 L55.420765,19.8087432 L56.7868852,19.8087432 L53.2349727,28.5519126 C52.5519126,30.3278689 51.7322404,31.010929 50.3661202,31.010929 C49.5464481,31.010929 49,30.8743169 48.4535519,30.6010929 Z" id="Shape"></path>
                            <polygon id="Shape" points="59.2459016 16.9398907 60.6120219 16.9398907 63.8907104 26.5027322 67.0327869 16.9398907 68.1256831 16.9398907 71.2677596 26.5027322 74.5464481 16.9398907 75.9125683 16.9398907 71.8142077 28.5519126 70.7213115 28.5519126 67.579235 19.2622951 64.4371585 28.5519126 63.3442623 28.5519126"></polygon>
                            <path d="M75.6393443,24.1803279 C75.6393443,21.7213115 77.5519126,19.6721311 80.010929,19.6721311 C82.6065574,19.6721311 84.3825137,21.7213115 84.3825137,24.0437158 C84.3825137,26.5027322 82.4699454,28.4153005 79.8743169,28.4153005 C77.5519126,28.5519126 75.6393443,26.6393443 75.6393443,24.1803279 Z M83.1530055,24.1803279 C83.1530055,22.2677596 81.7868852,20.9016393 80.010929,20.9016393 C78.2349727,20.9016393 76.8688525,22.4043716 76.8688525,24.1803279 C76.8688525,25.9562842 78.2349727,27.4590164 80.010929,27.4590164 C81.9234973,27.4590164 83.1530055,25.9562842 83.1530055,24.1803279 Z" id="Shape"></path>
                            <path d="M86.1584699,19.9453552 L87.3879781,19.9453552 L87.3879781,22.1311475 C88.0710383,20.7650273 89.3005464,19.6721311 90.8032787,19.8087432 L90.8032787,21.1748634 L90.6666667,21.1748634 C88.7540984,21.1748634 87.2513661,22.5409836 87.2513661,25 L87.2513661,28.4153005 L86.0218579,28.4153005 L86.0218579,19.9453552 L86.1584699,19.9453552 Z" id="Shape"></path>
                            <polygon id="Shape" points="92.1693989 16.3934426 93.3989071 16.3934426 93.3989071 24.5901639 97.9071038 19.8087432 99.5464481 19.8087432 95.9945355 23.4972678 99.6830601 28.2786885 98.1803279 28.2786885 95.1748634 24.3169399 93.3989071 26.0928962 93.3989071 28.2786885 92.1693989 28.2786885"></polygon>
                            <path d="M103.918033,27.4590164 C105.147541,27.4590164 105.967213,27.0491803 106.650273,26.2295082 L107.469945,26.9125683 C106.650273,27.8688525 105.557377,28.5519126 103.918033,28.5519126 C101.595628,28.5519126 99.6830601,26.7759563 99.6830601,24.1803279 C99.6830601,21.7213115 101.459016,19.8087432 103.781421,19.8087432 C106.240437,19.8087432 107.743169,21.8579235 107.743169,24.3169399 C107.743169,24.4535519 107.743169,24.5901639 107.743169,24.726776 L101.04918,24.726776 C101.04918,26.5027322 102.415301,27.4590164 103.918033,27.4590164 Z M106.377049,23.6338798 C106.240437,22.1311475 105.284153,20.7650273 103.644809,20.7650273 C102.142077,20.7650273 101.04918,21.9945355 100.912568,23.6338798 L106.377049,23.6338798 Z" id="Shape"></path>
                            <path d="M109.245902,19.9453552 L110.47541,19.9453552 L110.47541,22.1311475 C111.15847,20.7650273 112.387978,19.6721311 113.89071,19.8087432 L113.89071,21.1748634 L113.754098,21.1748634 C111.84153,21.1748634 110.338798,22.5409836 110.338798,25 L110.338798,28.4153005 L109.10929,28.4153005 L109.10929,19.9453552 L109.245902,19.9453552 Z" id="Shape"></path>
                            <path d="M114.57377,27.3224044 L115.256831,26.3661202 C116.213115,27.0491803 117.169399,27.4590164 118.125683,27.4590164 C119.081967,27.4590164 119.901639,26.9125683 119.901639,26.0928962 C119.901639,25.273224 118.945355,24.863388 117.852459,24.5901639 C116.486339,24.1803279 114.983607,23.7704918 114.983607,22.1311475 C114.983607,20.6284153 116.213115,19.6721311 117.852459,19.6721311 C118.945355,19.6721311 120.038251,20.0819672 120.857923,20.6284153 L120.311475,21.5846995 C119.491803,21.0382514 118.672131,20.7650273 117.852459,20.7650273 C116.896175,20.7650273 116.213115,21.3114754 116.213115,21.9945355 C116.213115,22.8142077 117.306011,23.0874317 118.398907,23.4972678 C119.765027,23.9071038 121.131148,24.4535519 121.131148,25.9562842 C121.131148,27.5956284 119.765027,28.5519126 118.125683,28.5519126 C116.759563,28.5519126 115.530055,28.0054645 114.57377,27.3224044 Z" id="Shape"></path>
                            <polygon id="Shape" points="122.63388 26.6393443 124.136612 26.6393443 124.136612 28.4153005 122.63388 28.4153005"></polygon>
                        </g>
                        <path d="M41.6229508,29.9180328 C42.442623,29.0983607 42.442623,27.7322404 41.6229508,26.9125683 C40.8032787,26.0928962 39.4371585,26.0928962 38.6174863,26.9125683 L38.3442623,27.1857923 L38.0710383,26.9125683 C37.2513661,26.0928962 35.8852459,26.0928962 35.0655738,26.9125683 C34.2459016,27.7322404 34.2459016,29.0983607 35.0655738,29.9180328 L38.3442623,33.1967213 L41.6229508,29.9180328 Z" id="Shape" fill="#B4A533" fill-rule="nonzero"></path>
                        <path d="M83.2896175,29.9180328 C84.1092896,29.0983607 84.1092896,27.7322404 83.2896175,26.9125683 C82.4699454,26.0928962 81.1038251,26.0928962 80.284153,26.9125683 L80.010929,27.1857923 L79.7377049,26.9125683 C78.9180328,26.0928962 77.5519126,26.0928962 76.7322404,26.9125683 C75.9125683,27.7322404 75.9125683,29.0983607 76.7322404,29.9180328 L80.010929,33.1967213 L83.2896175,29.9180328 Z" id="Shape" fill="#7BA296" fill-rule="nonzero"></path>
                        <path d="M48.863388,34.0163934 L48.863388,33.8797814 C48.863388,28.1420765 44.2185792,23.3606557 38.4808743,23.3606557 C32.7431694,23.3606557 28.0983607,28.0054645 28.0983607,33.7431694 L28.0983607,34.0163934 L27.9617486,34.0163934 L24.273224,34.0163934 L24.273224,33.8797814 C24.273224,25.9562842 30.6939891,19.5355191 38.4808743,19.5355191 C46.2677596,19.5355191 52.6885246,25.9562842 52.6885246,33.7431694 L52.6885246,34.0163934 L52.5519126,34.0163934 L48.863388,34.0163934 Z" id="Shape" fill="#526370" fill-rule="nonzero"></path>
                        <path d="M90.5300546,34.0163934 L90.5300546,33.8797814 C90.5300546,28.1420765 85.8852459,23.3606557 80.147541,23.3606557 C74.4098361,23.3606557 69.7650273,28.0054645 69.7650273,33.7431694 L69.7650273,34.0163934 L69.6284153,34.0163934 L65.9398907,34.0163934 L65.9398907,33.8797814 C65.9398907,25.9562842 72.3606557,19.5355191 80.147541,19.5355191 C87.9344262,19.5355191 94.3551913,25.9562842 94.3551913,33.7431694 L94.3551913,34.0163934 L94.2185792,34.0163934 L90.5300546,34.0163934 Z" id="Shape" fill="#526370" fill-rule="nonzero"></path>
                        <path d="M21.6775956,31.8306011 C22.6338798,30.8743169 22.6338798,29.2349727 21.6775956,28.1420765 C20.7213115,27.1857923 19.0819672,27.1857923 17.989071,28.1420765 L17.715847,28.4153005 L17.442623,28.1420765 C16.4863388,27.1857923 14.8469945,27.1857923 13.7540984,28.1420765 C12.7978142,29.0983607 12.7978142,30.7377049 13.7540984,31.8306011 L17.715847,35.7923497 L21.6775956,31.8306011 Z" id="Shape" fill="#E27D26" fill-rule="nonzero"></path>
                        <path d="M30.557377,36.8852459 L30.557377,36.7486339 C30.557377,29.6448087 24.8196721,23.7704918 17.715847,23.7704918 C10.6120219,23.7704918 4.87431694,29.5081967 4.87431694,36.6120219 L4.87431694,36.8852459 L4.6010929,36.8852459 L0.0928961749,36.8852459 L0.0928961749,36.7486339 C0.0928961749,27.0491803 8.01639344,19.1256831 17.715847,19.1256831 C27.4153005,19.1256831 35.3387978,27.0491803 35.3387978,36.7486339 L35.3387978,36.8852459 L35.2021858,36.8852459 L30.557377,36.8852459 Z" id="Shape" fill="#526370" fill-rule="nonzero"></path>
                        <path d="M21.4043716,9.01639344 C21.4043716,6.96721311 19.7650273,5.32786885 17.715847,5.32786885 C15.6666667,5.32786885 14.0273224,6.96721311 14.0273224,9.01639344 C14.0273224,9.15300546 14.0273224,9.15300546 14.0273224,9.28961749 L21.4043716,9.28961749 C21.4043716,9.15300546 21.4043716,9.01639344 21.4043716,9.01639344 Z" id="Shape" fill="#E27D26" fill-rule="nonzero"></path>
                        <path d="M63.0710383,9.01639344 C63.0710383,6.96721311 61.431694,5.32786885 59.3825137,5.32786885 C57.3333333,5.32786885 55.6939891,6.96721311 55.6939891,9.01639344 C55.6939891,9.15300546 55.6939891,9.15300546 55.6939891,9.28961749 L63.0710383,9.28961749 C62.9344262,9.15300546 63.0710383,9.01639344 63.0710383,9.01639344 Z" id="Shape" fill="#639EC8" fill-rule="nonzero"></path>
                        <g id="Group" transform="translate(41.349727, 0.000000)" fill-rule="nonzero">
                            <path d="M21.8579235,31.8306011 C22.8142077,30.8743169 22.8142077,29.2349727 21.8579235,28.1420765 C20.9016393,27.1857923 19.2622951,27.1857923 18.1693989,28.1420765 L17.8961749,28.4153005 L17.6229508,28.1420765 C16.6666667,27.1857923 15.0273224,27.1857923 13.9344262,28.1420765 C12.9781421,29.0983607 12.9781421,30.7377049 13.9344262,31.8306011 L17.8961749,35.7923497 L21.8579235,31.8306011 Z" id="Shape" fill="#639EC8"></path>
                            <path d="M30.8743169,36.8852459 L30.8743169,36.7486339 C30.8743169,29.6448087 25.136612,23.7704918 18.0327869,23.7704918 C10.9289617,23.7704918 5.19125683,29.5081967 5.19125683,36.6120219 L5.19125683,36.8852459 L5.05464481,36.8852459 L0.546448087,36.8852459 L0.546448087,36.7486339 C0.546448087,27.0491803 8.46994536,19.1256831 18.1693989,19.1256831 C27.5956284,19.1256831 35.5191257,27.0491803 35.5191257,36.7486339 L35.5191257,36.8852459 L35.3825137,36.8852459 L30.8743169,36.8852459 Z" id="Shape" fill="#526370"></path>
                            <path d="M18.0327869,18.1693989 C13.1147541,18.1693989 9.01639344,14.0710383 9.01639344,9.15300546 C9.01639344,4.23497268 13.1147541,0.136612022 18.0327869,0.136612022 C22.9508197,0.136612022 27.0491803,4.23497268 27.0491803,9.15300546 C27.0491803,14.0710383 22.9508197,18.1693989 18.0327869,18.1693989 Z M18.0327869,4.3715847 C15.4371585,4.3715847 13.2513661,6.55737705 13.2513661,9.15300546 C13.2513661,11.7486339 15.4371585,13.9344262 18.0327869,13.9344262 C20.6284153,13.9344262 22.8142077,11.7486339 22.8142077,9.15300546 C22.8142077,6.55737705 20.6284153,4.3715847 18.0327869,4.3715847 Z" id="Shape" fill="#526370"></path>
                        </g>
                        <path d="M38.4808743,18.579235 C34.3825137,18.579235 31.1038251,15.3005464 31.1038251,11.2021858 C31.1038251,7.10382514 34.3825137,3.82513661 38.4808743,3.82513661 C42.579235,3.82513661 45.8579235,7.10382514 45.8579235,11.2021858 C45.8579235,15.3005464 42.442623,18.579235 38.4808743,18.579235 Z M38.4808743,7.37704918 C36.295082,7.37704918 34.6557377,9.15300546 34.6557377,11.2021858 C34.6557377,13.2513661 36.431694,15.0273224 38.4808743,15.0273224 C40.6666667,15.0273224 42.3060109,13.2513661 42.3060109,11.2021858 C42.3060109,9.15300546 40.5300546,7.37704918 38.4808743,7.37704918 Z" id="Shape" fill="#526370" fill-rule="nonzero"></path>
                        <path d="M17.715847,18.1693989 C12.7978142,18.1693989 8.69945355,14.0710383 8.69945355,9.15300546 C8.69945355,4.23497268 12.7978142,0.136612022 17.715847,0.136612022 C22.6338798,0.136612022 26.7322404,4.23497268 26.7322404,9.15300546 C26.7322404,14.0710383 22.6338798,18.1693989 17.715847,18.1693989 Z M17.715847,4.3715847 C15.1202186,4.3715847 12.9344262,6.55737705 12.9344262,9.15300546 C12.9344262,11.7486339 15.1202186,13.9344262 17.715847,13.9344262 C20.3114754,13.9344262 22.4972678,11.7486339 22.4972678,9.15300546 C22.4972678,6.55737705 20.3114754,4.3715847 17.715847,4.3715847 Z" id="Shape" fill="#526370" fill-rule="nonzero"></path>
                        <path d="M80.284153,18.579235 C76.1857923,18.579235 72.9071038,15.3005464 72.9071038,11.2021858 C72.9071038,7.10382514 76.1857923,3.82513661 80.284153,3.82513661 C84.3825137,3.82513661 87.6612022,7.10382514 87.6612022,11.2021858 C87.6612022,15.3005464 84.2459016,18.579235 80.284153,18.579235 Z M80.284153,7.37704918 C78.0983607,7.37704918 76.4590164,9.15300546 76.4590164,11.2021858 C76.4590164,13.2513661 78.2349727,15.0273224 80.284153,15.0273224 C82.4699454,15.0273224 84.1092896,13.2513661 84.1092896,11.2021858 C84.1092896,9.15300546 82.3333333,7.37704918 80.284153,7.37704918 Z" id="Shape" fill="#526370" fill-rule="nonzero"></path>
                        <path d="M41.4863388,10.9289617 C41.4863388,9.42622951 40.1202186,8.06010929 38.4808743,8.06010929 C36.8415301,8.06010929 35.4754098,9.28961749 35.4754098,10.9289617 C35.4754098,10.9289617 35.4754098,11.0655738 35.4754098,11.0655738 L41.3497268,11.0655738 C41.4863388,11.0655738 41.4863388,11.0655738 41.4863388,10.9289617 Z" id="Shape" fill="#B4A432" fill-rule="nonzero"></path>
                        <path d="M83.1530055,10.9289617 C83.1530055,9.42622951 81.7868852,8.06010929 80.147541,8.06010929 C78.5081967,8.06010929 77.1420765,9.28961749 77.1420765,10.9289617 C77.1420765,10.9289617 77.1420765,11.0655738 77.1420765,11.0655738 L83.0163934,11.0655738 C83.1530055,11.0655738 83.1530055,11.0655738 83.1530055,10.9289617 Z" id="Shape" fill="#7BA296" fill-rule="nonzero"></path>
                    </g>
                </g>
            </g>
            <g id="!!!Icons-for-Export!!!" transform="translate(79.000000, 4270.000000)"></g>
        </g>
    </g>
</svg>