<?xml version="1.0" encoding="UTF-8"?>
<svg width="35px" height="35px" viewBox="0 0 35 35" version="1.1" xmlns="http://www.w3.org/2000/svg" xmlns:xlink="http://www.w3.org/1999/xlink">
    <!-- Generator: Sketch 48.2 (47327) - http://www.bohemiancoding.com/sketch -->
    <title>Social Icons/Default/Instagram</title>
    <desc>Created with Sketch.</desc>
    <defs>
        <linearGradient x1="0%" y1="50%" x2="100%" y2="50%" id="linearGradient-1">
            <stop stop-color="#7B2532" offset="0%"></stop>
            <stop stop-color="#A43243" offset="100%"></stop>
        </linearGradient>
        <rect id="path-2" x="0" y="0" width="35" height="35" rx="17.5"></rect>
    </defs>
    <g id="Styleguide" stroke="none" stroke-width="1" fill="none" fill-rule="evenodd" transform="translate(-672.000000, -4299.000000)">
        <g id="Icons" transform="translate(80.000000, 4208.000000)">
            <g id="instagram" transform="translate(592.000000, 91.000000)">
                <path d="M17.4845333,7.71386028 C14.8225813,7.71386028 14.4888008,7.72507365 13.4433791,7.77284864 C12.4000627,7.82049474 11.6875623,7.98616054 11.0641674,8.22842958 C10.4195917,8.47890457 9.87297193,8.81405988 9.32807066,9.35896115 C8.7831694,9.90386241 8.44801409,10.4505252 8.19758206,11.0950579 C7.95518413,11.7185387 7.78951833,12.4310391 7.74195816,13.4743126 C7.69422613,14.5197342 7.68296979,14.8534717 7.68296979,17.5154238 C7.68296979,20.1774617 7.69422613,20.5111992 7.74195816,21.5566209 C7.78951833,22.5998943 7.95518413,23.3123947 8.19758206,23.9358755 C8.44801409,24.5804083 8.7831694,25.127071 9.32807066,25.6719723 C9.87297193,26.2168736 10.4195917,26.5520289 11.0641674,26.8025039 C11.6875623,27.0447729 12.4000627,27.2104387 13.4433791,27.2580848 C14.4888008,27.3057739 14.8225813,27.3170732 17.4845333,27.3170732 C20.1464853,27.3170732 20.4803087,27.3057739 21.5257304,27.2580848 C22.5690038,27.2104387 23.2815042,27.0447729 23.9049421,26.8025039 C24.5495178,26.5520289 25.0960946,26.2168736 25.6409959,25.6719723 C26.1858972,25.127071 26.5210525,24.5804083 26.7715275,23.9358755 C27.0138824,23.3123947 27.1795482,22.5998943 27.2271514,21.5566209 C27.2748834,20.5111992 27.2860968,20.1774617 27.2860968,17.5154238 C27.2860968,14.8534717 27.2748834,14.5197342 27.2271514,13.4743126 C27.1795482,12.4310391 27.0138824,11.7185387 26.7715275,11.0950579 C26.5210525,10.4505252 26.1858972,9.90386241 25.6409959,9.35896115 C25.0960946,8.81405988 24.5495178,8.47890457 23.9049421,8.22842958 C23.2815042,7.98616054 22.5690038,7.82049474 21.5257304,7.77284864 C20.4803087,7.72507365 20.1464853,7.71386028 17.4845333,7.71386028 M17.4845333,9.47990233 C20.1016748,9.47990233 20.4116107,9.48986978 21.4452175,9.53700032 C22.4008462,9.58060789 22.9198407,9.74034477 23.2652212,9.8745186 C23.7227785,10.052343 24.0492982,10.2647526 24.3922298,10.6077272 C24.7352903,10.9507448 24.9477,11.2772215 25.1254384,11.7347358 C25.2596123,12.0801163 25.4193491,12.5991538 25.4629567,13.5547396 C25.5100873,14.5883463 25.5200977,14.8982823 25.5200977,17.5154238 C25.5200977,20.1326512 25.5100873,20.4425871 25.4629567,21.476108 C25.4193491,22.4317796 25.2596123,22.9508171 25.1254384,23.2961976 C24.9477,23.7536689 24.7352903,24.0801887 24.3922298,24.4232062 C24.0492982,24.7661808 23.7227785,24.9785905 23.2652212,25.1563719 C22.9198407,25.2905887 22.4008462,25.4503256 21.4452175,25.4938472 C20.4117826,25.5410637 20.1018896,25.5509882 17.4845333,25.5509882 C14.867177,25.5509882 14.557284,25.5410637 13.5238491,25.4938472 C12.5682633,25.4503256 12.0492259,25.2905887 11.7038453,25.1563719 C11.2463311,24.9785905 10.9198113,24.7661808 10.5768367,24.4232062 C10.2339051,24.0801887 10.0214954,23.7536689 9.84367108,23.2961976 C9.70945429,22.9508171 9.54976037,22.4317796 9.50610984,21.476108 C9.45902226,20.4425871 9.44901185,20.1326512 9.44901185,17.5154238 C9.44901185,14.8982823 9.45902226,14.5883463 9.50610984,13.5547396 C9.54976037,12.5991538 9.70945429,12.0801163 9.84367108,11.7347358 C10.0214954,11.2772215 10.2339051,10.9507448 10.5768367,10.6077272 C10.9198113,10.2647526 11.2463311,10.052343 11.7038453,9.8745186 C12.0492259,9.74034477 12.5682633,9.58060789 13.5238491,9.53700032 C14.5574558,9.48986978 14.8673918,9.47990233 17.4845333,9.47990233" id="Fill-1" fill="url(#linearGradient-1)"></path>
                <path d="M17.4845333,20.7826402 C15.6801252,20.7826402 14.2173168,19.3198748 14.2173168,17.5154238 C14.2173168,15.7110156 15.6801252,14.2482503 17.4845333,14.2482503 C19.2889844,14.2482503 20.7517497,15.7110156 20.7517497,17.5154238 C20.7517497,19.3198748 19.2889844,20.7826402 17.4845333,20.7826402 M17.4845333,12.4822082 C14.7047764,12.4822082 12.4513177,14.7357098 12.4513177,17.5154238 C12.4513177,20.2952666 14.7047764,22.5486823 17.4845333,22.5486823 C20.2642902,22.5486823 22.5177488,20.2952666 22.5177488,17.5154238 C22.5177488,14.7357098 20.2642902,12.4822082 17.4845333,12.4822082" id="Fill-4" fill="url(#linearGradient-1)"></path>
                <path d="M23.8928695,12.2833319 C23.8928695,12.9328913 23.3662705,13.4595333 22.7166681,13.4595333 C22.0671087,13.4595333 21.5404667,12.9328913 21.5404667,12.2833319 C21.5404667,11.6337295 22.0671087,11.1071305 22.7166681,11.1071305 C23.3662705,11.1071305 23.8928695,11.6337295 23.8928695,12.2833319" id="Fill-5" fill="url(#linearGradient-1)"></path>
                <g id="background">
                    <mask id="mask-3" fill="white">
                        <use xlink:href="#path-2"></use>
                    </mask>
                    <rect stroke="url(#linearGradient-1)" stroke-width="1.5" x="0.75" y="0.75" width="33.5" height="33.5" rx="16.75"></rect>
                </g>
            </g>
        </g>
        <g id="!!!Icons-for-Export!!!" transform="translate(79.000000, 4208.000000)"></g>
    </g>
</svg>