<?xml version="1.0" encoding="UTF-8"?>
<svg width="35px" height="35px" viewBox="0 0 35 35" version="1.1" xmlns="http://www.w3.org/2000/svg" xmlns:xlink="http://www.w3.org/1999/xlink">
    <!-- Generator: Sketch 48.2 (47327) - http://www.bohemiancoding.com/sketch -->
    <title>Social Icons/Default/Twitter</title>
    <desc>Created with Sketch.</desc>
    <defs>
        <linearGradient x1="0%" y1="50%" x2="100%" y2="50%" id="linearGradient-1">
            <stop stop-color="#7B2532" offset="0%"></stop>
            <stop stop-color="#A43243" offset="100%"></stop>
        </linearGradient>
    </defs>
    <g id="Styleguide" stroke="none" stroke-width="1" fill="none" fill-rule="evenodd" transform="translate(-1027.000000, -4299.000000)">
        <g id="Icons" transform="translate(80.000000, 4208.000000)">
            <g id="Twitter" transform="translate(947.000000, 91.000000)">
                <circle id="Oval-2-Copy" stroke="url(#linearGradient-1)" stroke-width="1.5" cx="17.5" cy="17.5" r="16.75"></circle>
                <path d="M24.3263193,14.620262 C24.3333814,14.7734462 24.337184,14.9277055 24.337184,15.0825023 C24.337184,19.8011156 20.7072727,25.2421138 14.0689135,25.2421138 C12.0306874,25.2421138 10.1337029,24.6508762 8.53658537,23.63771 C8.81906874,23.6704968 9.10644128,23.6876964 9.39761644,23.6876964 C11.0881707,23.6876964 12.6445454,23.1168835 13.8798669,22.1590786 C12.3006762,22.1300542 10.9675721,21.0980759 10.5085366,19.6791057 C10.7285477,19.7210298 10.9550776,19.7436043 11.1875831,19.7436043 C11.5167849,19.7436043 11.835122,19.6995303 12.1382483,19.617832 C10.4873503,19.2899639 9.24333704,17.8468067 9.24333704,16.1166305 L9.24333704,16.072019 C9.7300776,16.3391508 10.2863526,16.49986 10.8784811,16.518672 C9.90988916,15.8785231 9.27267182,14.785271 9.27267182,13.5463595 C9.27267182,12.8922357 9.45085366,12.2789611 9.76158537,11.7511472 C11.5412306,13.9118518 14.200377,15.332972 17.2001331,15.4823938 C17.138204,15.2206369 17.1066962,14.9481301 17.1066962,14.6680984 C17.1066962,12.6965898 18.7222838,11.097561 20.7154213,11.097561 C21.7535477,11.097561 22.6911752,11.5313144 23.3495787,12.2252123 C24.1714967,12.0650406 24.94398,11.7678094 25.6414967,11.3587805 C25.372051,12.1924255 24.799479,12.8922357 24.0547006,13.3340515 C24.7848116,13.2480533 25.4801552,13.0561699 26.1271508,12.7718383 C25.6436696,13.4883108 25.0314413,14.1171726 24.3263193,14.620262" id="Imported-Layers" fill="url(#linearGradient-1)" fill-rule="nonzero"></path>
            </g>
        </g>
        <g id="!!!Icons-for-Export!!!" transform="translate(79.000000, 4208.000000)"></g>
    </g>
</svg>