<?xml version="1.0" encoding="UTF-8"?>
<svg width="35px" height="35px" viewBox="0 0 35 35" version="1.1" xmlns="http://www.w3.org/2000/svg" xmlns:xlink="http://www.w3.org/1999/xlink">
    <!-- Generator: Sketch 48.2 (47327) - http://www.bohemiancoding.com/sketch -->
    <title>Social Icons/Default/Youtube</title>
    <desc>Created with Sketch.</desc>
    <defs>
        <linearGradient x1="0%" y1="50%" x2="100%" y2="50%" id="linearGradient-1">
            <stop stop-color="#7B2532" offset="0%"></stop>
            <stop stop-color="#A43243" offset="100%"></stop>
        </linearGradient>
    </defs>
    <g id="Styleguide" stroke="none" stroke-width="1" fill="none" fill-rule="evenodd" transform="translate(-1145.000000, -4299.000000)">
        <g id="Icons" transform="translate(80.000000, 4208.000000)">
            <g id="youtube" transform="translate(1065.000000, 91.000000)">
                <path d="M17.5,34.25 C26.7507697,34.25 34.25,26.7507697 34.25,17.5 C34.25,8.24923025 26.7507697,0.75 17.5,0.75 C8.24923025,0.75 0.75,8.24923025 0.75,17.5 C0.75,26.7507697 8.24923025,34.25 17.5,34.25 Z" id="Oval-56" stroke="url(#linearGradient-1)" stroke-width="1.5" fill-rule="nonzero"></path>
                <path d="M25.5266328,11.9626726 C25.1594544,11.6293598 24.694435,11.4107627 24.1858507,11.3545683 C23.0804463,11.2308435 21.9650185,11.1685664 20.845893,11.137342 C19.7339489,11.1063321 18.6172398,11.1063321 17.5030099,11.1069746 C16.3889384,11.1063321 15.2723018,11.1063321 14.1602114,11.137342 C13.0409578,11.168566 11.9252,11.2308429 10.8191658,11.3545683 C10.3110722,11.4107915 9.84625233,11.6294879 9.4794112,11.9629446 C9.11490305,12.2942593 8.84709236,12.7392187 8.72993486,13.2507089 C8.57177265,13.936338 8.49176379,14.6516889 8.45134535,15.3714773 C8.41076977,16.094313 8.4097562,16.8079958 8.4097562,17.5008401 C8.4097562,18.1927658 8.40977047,18.905519 8.4493894,19.6287887 C8.4888228,20.3482543 8.56786075,21.0635786 8.72610769,21.7493273 C8.84396521,22.2610327 9.11190391,22.7061215 9.47638426,23.037418 C9.8430066,23.3706885 10.3073684,23.5892566 10.8153168,23.64548 C11.9214925,23.7691916 13.0372491,23.8314674 14.1565076,23.8626773 C15.2685798,23.8936872 16.3852212,23.8936872 17.4994511,23.8930447 C18.614179,23.8936872 19.7307999,23.8936872 20.842721,23.8626773 C21.9618175,23.8314676 23.0772489,23.7691909 24.1832952,23.64548 C24.6911458,23.5892568 25.1554084,23.3707599 25.5221915,23.0375897 C25.8868568,22.7063185 26.1551668,22.2611862 26.2737954,21.7493298 C26.4313435,21.063558 26.510395,20.3482289 26.5499721,19.6287911 C26.58902,18.9193186 26.5893483,18.1995858 26.5892913,17.5008425 L26.590048,17.5008425 L26.590048,17.4657637 L26.5892913,17.4657637 C26.5893198,16.077464 26.5893198,14.607063 26.2776364,13.2507238 C26.1597789,12.7390039 25.8915404,12.2939574 25.5266322,11.9626814 L25.5266328,11.9626726 Z" id="Shape" fill="url(#linearGradient-1)"></path>
                <path d="M20.9494141,17.1586366 C19.913653,16.6177195 18.8848546,16.0808724 17.8572832,15.5446793 C17.0031132,15.0989619 16.1497169,14.6536447 15.2938425,14.2067863 L15.0112845,14.0592615 L15.0112845,14.3775272 L15.0112845,20.2612949 L15.0112845,20.5787604 L15.2930858,20.4327913 C16.2383867,19.9431295 17.1796503,19.4552808 18.1208776,18.967298 L20.9486574,17.500874 L21.2778155,17.3301488 L20.9494141,17.1586378 L20.9494141,17.1586366 Z" id="Shape" fill="#FFFFFF"></path>
            </g>
        </g>
        <g id="!!!Icons-for-Export!!!" transform="translate(79.000000, 4208.000000)"></g>
    </g>
</svg>