<?xml version="1.0" encoding="UTF-8"?>
<svg width="35px" height="35px" viewBox="0 0 35 35" version="1.1" xmlns="http://www.w3.org/2000/svg" xmlns:xlink="http://www.w3.org/1999/xlink">
    <!-- Generator: Sketch 48.2 (47327) - http://www.bohemiancoding.com/sketch -->
    <title>Social Icons/Active/Instagram</title>
    <desc>Created with Sketch.</desc>
    <defs>
        <rect id="path-1" x="0" y="0" width="35" height="35" rx="17.5"></rect>
        <linearGradient x1="17.9393583%" y1="15.465716%" x2="83.1623559%" y2="85.2036559%" id="linearGradient-3">
            <stop stop-color="#395DFA" offset="0%"></stop>
            <stop stop-color="#544CED" offset="15.6768176%"></stop>
            <stop stop-color="#903ACD" offset="38.7914541%"></stop>
            <stop stop-color="#D53592" offset="55.5464764%"></stop>
            <stop stop-color="#F4306D" offset="100%"></stop>
        </linearGradient>
        <filter x="0.0%" y="0.0%" width="100.0%" height="100.0%" filterUnits="objectBoundingBox" id="filter-4">
            <feGaussianBlur stdDeviation="0" in="SourceGraphic"></feGaussianBlur>
        </filter>
        <filter x="-42.5%" y="-42.5%" width="185.0%" height="185.0%" filterUnits="objectBoundingBox" id="filter-5">
            <feGaussianBlur stdDeviation="4.73493304" in="SourceGraphic"></feGaussianBlur>
        </filter>
        <filter x="-55.0%" y="-55.0%" width="209.9%" height="209.9%" filterUnits="objectBoundingBox" id="filter-6">
            <feGaussianBlur stdDeviation="5.65178571" in="SourceGraphic"></feGaussianBlur>
        </filter>
        <filter x="-45.2%" y="-45.2%" width="190.4%" height="190.4%" filterUnits="objectBoundingBox" id="filter-7">
            <feGaussianBlur stdDeviation="3.8691078" in="SourceGraphic"></feGaussianBlur>
        </filter>
        <filter x="-51.6%" y="-51.6%" width="203.3%" height="203.3%" filterUnits="objectBoundingBox" id="filter-8">
            <feGaussianBlur stdDeviation="3.91908482" in="SourceGraphic"></feGaussianBlur>
        </filter>
        <filter x="-194.4%" y="-194.4%" width="488.9%" height="488.9%" filterUnits="objectBoundingBox" id="filter-9">
            <feGaussianBlur stdDeviation="12.869075" in="SourceGraphic"></feGaussianBlur>
        </filter>
    </defs>
    <g id="Styleguide" stroke="none" stroke-width="1" fill="none" fill-rule="evenodd" transform="translate(-80.000000, -4299.000000)">
        <g id="Icons" transform="translate(80.000000, 4208.000000)">
            <g id="Social-Icons/Active/Instagram" transform="translate(0.000000, 91.000000)">
                <g id="Color-background">
                    <mask id="mask-2" fill="white">
                        <use xlink:href="#path-1"></use>
                    </mask>
                    <use id="round-shape" fill="#C5C5C5" xlink:href="#path-1"></use>
                    <circle id="bottom" fill="url(#linearGradient-3)" filter="url(#filter-4)" mask="url(#mask-2)" cx="17.5815851" cy="17.2552448" r="17.5"></circle>
                    <circle id="Oval-12" fill="#F8443E" filter="url(#filter-5)" mask="url(#mask-2)" cx="11.4983974" cy="31.4663462" r="16.7147436"></circle>
                    <circle id="Oval-13" fill="#F86737" filter="url(#filter-6)" mask="url(#mask-2)" cx="11.0496795" cy="34.6073718" r="15.4246795"></circle>
                    <circle id="Oval-13" fill="#F88330" filter="url(#filter-7)" mask="url(#mask-2)" cx="11.3862179" cy="34.8317308" r="12.8445513"></circle>
                    <circle id="Oval-13" fill="#FBBB45" filter="url(#filter-8)" mask="url(#mask-2)" cx="11.3862179" cy="36.2900641" r="11.3862179"></circle>
                    <circle id="Oval-13" fill="#FBE18A" filter="url(#filter-9)" mask="url(#mask-2)" cx="11.2740385" cy="37.7483974" r="9.92788462"></circle>
                </g>
                <g id="instagram" transform="translate(7.159091, 7.159091)" fill="#F7F7F8">
                    <path d="M10.3254424,0.554769367 C7.66349035,0.554769367 7.32970986,0.565982742 6.28428823,0.613757733 C5.2409718,0.661403834 4.5284714,0.827069629 3.90507651,1.06933867 C3.26050081,1.31981366 2.71388102,1.65496897 2.16897975,2.19987024 C1.62407849,2.7447715 1.28892318,3.29143426 1.03849115,3.935967 C0.796093219,4.55944781 0.630427424,5.27194821 0.582867249,6.31522168 C0.535135221,7.36064331 0.523878883,7.69438083 0.523878883,10.3563329 C0.523878883,13.0183708 0.535135221,13.3521083 0.582867249,14.3975299 C0.630427424,15.4408034 0.796093219,16.1533038 1.03849115,16.7767846 C1.28892318,17.4213174 1.62407849,17.9679801 2.16897975,18.5128814 C2.71388102,19.0577827 3.26050081,19.392938 3.90507651,19.643413 C4.5284714,19.885682 5.2409718,20.0513478 6.28428823,20.0989939 C7.32970986,20.146683 7.66349035,20.1579823 10.3254424,20.1579823 C12.9873944,20.1579823 13.3212178,20.146683 14.3666395,20.0989939 C15.4099129,20.0513478 16.1224133,19.885682 16.7458512,19.643413 C17.3904269,19.392938 17.9370037,19.0577827 18.481905,18.5128814 C19.0268062,17.9679801 19.3619616,17.4213174 19.6124365,16.7767846 C19.8547915,16.1533038 20.0204573,15.4408034 20.0680604,14.3975299 C20.1157925,13.3521083 20.1270059,13.0183708 20.1270059,10.3563329 C20.1270059,7.69438083 20.1157925,7.36064331 20.0680604,6.31522168 C20.0204573,5.27194821 19.8547915,4.55944781 19.6124365,3.935967 C19.3619616,3.29143426 19.0268062,2.7447715 18.481905,2.19987024 C17.9370037,1.65496897 17.3904269,1.31981366 16.7458512,1.06933867 C16.1224133,0.827069629 15.4099129,0.661403834 14.3666395,0.613757733 C13.3212178,0.565982742 12.9873944,0.554769367 10.3254424,0.554769367 M10.3254424,2.32081142 C12.9425839,2.32081142 13.2525198,2.33077887 14.2861266,2.37790941 C15.2417553,2.42151698 15.7607498,2.58125386 16.1061303,2.71542769 C16.5636876,2.89325205 16.8902073,3.10566172 17.2331389,3.44863632 C17.5761994,3.79165387 17.7886091,4.11813063 17.9663475,4.57564491 C18.1005214,4.92102544 18.2602582,5.4400629 18.3038658,6.39564864 C18.3509964,7.42925541 18.3610068,7.73919137 18.3610068,10.3563329 C18.3610068,12.9735603 18.3509964,13.2834962 18.3038658,14.3170171 C18.2602582,15.2726887 18.1005214,15.7917262 17.9663475,16.1371067 C17.7886091,16.594578 17.5761994,16.9210978 17.2331389,17.2641153 C16.8902073,17.6070899 16.5636876,17.8194996 16.1061303,17.997281 C15.7607498,18.1314978 15.2417553,18.2912346 14.2861266,18.3347563 C13.2526917,18.3819728 12.9427987,18.3918972 10.3254424,18.3918972 C7.70808607,18.3918972 7.39819307,18.3819728 6.36475816,18.3347563 C5.40917242,18.2912346 4.89013495,18.1314978 4.54475442,17.997281 C4.08724015,17.8194996 3.76072043,17.6070899 3.41774583,17.2641153 C3.0748142,16.9210978 2.86240453,16.594578 2.68458017,16.1371067 C2.55036338,15.7917262 2.39066946,15.2726887 2.34701893,14.3170171 C2.29993135,13.2834962 2.28992094,12.9735603 2.28992094,10.3563329 C2.28992094,7.73919137 2.29993135,7.42925541 2.34701893,6.39564864 C2.39066946,5.4400629 2.55036338,4.92102544 2.68458017,4.57564491 C2.86240453,4.11813063 3.0748142,3.79165387 3.41774583,3.44863632 C3.76072043,3.10566172 4.08724015,2.89325205 4.54475442,2.71542769 C4.89013495,2.58125386 5.40917242,2.42151698 6.36475816,2.37790941 C7.39836493,2.33077887 7.70830088,2.32081142 10.3254424,2.32081142" id="Fill-1"></path>
                    <path d="M10.3254424,13.6235493 C8.52103424,13.6235493 7.0582259,12.1607839 7.0582259,10.3563329 C7.0582259,8.55192473 8.52103424,7.08915934 10.3254424,7.08915934 C12.1298935,7.08915934 13.5926588,8.55192473 13.5926588,10.3563329 C13.5926588,12.1607839 12.1298935,13.6235493 10.3254424,13.6235493 M10.3254424,5.32311729 C7.54568547,5.32311729 5.2922268,7.57661892 5.2922268,10.3563329 C5.2922268,13.1361757 7.54568547,15.3895914 10.3254424,15.3895914 C13.1051993,15.3895914 15.3586579,13.1361757 15.3586579,10.3563329 C15.3586579,7.57661892 13.1051993,5.32311729 10.3254424,5.32311729" id="Fill-4"></path>
                    <path d="M16.7337785,5.124241 C16.7337785,5.77380043 16.2071796,6.30044237 15.5575772,6.30044237 C14.9080178,6.30044237 14.3813758,5.77380043 14.3813758,5.124241 C14.3813758,4.47463861 14.9080178,3.94803963 15.5575772,3.94803963 C16.2071796,3.94803963 16.7337785,4.47463861 16.7337785,5.124241" id="Fill-5"></path>
                </g>
            </g>
        </g>
        <g id="!!!Icons-for-Export!!!" transform="translate(79.000000, 4208.000000)"></g>
    </g>
</svg>