<svg id="Layer_1" data-name="Layer 1" xmlns="http://www.w3.org/2000/svg" viewBox="0 0 270.18 35.14"><defs><style>.cls-1{fill:#7a2531;}</style></defs><title>pshsa_logo</title><path class="cls-1" d="M166.57,12.13h6.88c4.06,0,6.67,2.09,6.67,5.64v.05c0,3.78-2.91,5.78-6.9,5.78H171v4.58h-4.45Zm6.56,8c1.58,0,2.54-.82,2.54-2.09v0c0-1.38-1-2.11-2.56-2.11H171v4.24Z" transform="translate(-5.6 -2.34)"/><path class="cls-1" d="M180.79,25.8l2.47-3a8.3,8.3,0,0,0,5.21,1.93c1.19,0,1.83-.41,1.83-1.1v-.05c0-.66-.52-1-2.7-1.54-3.42-.77-6.06-1.74-6.06-5V17c0-3,2.37-5.13,6.22-5.13a10.08,10.08,0,0,1,6.6,2.13l-2.22,3.14a8.06,8.06,0,0,0-4.5-1.58c-1.07,0-1.6.46-1.6,1v.05c0,.73.55,1.05,2.77,1.56,3.7.8,6,2,6,5v0c0,3.28-2.59,5.23-6.49,5.23a11.19,11.19,0,0,1-7.52-2.66" transform="translate(-5.6 -2.34)"/><polygon class="cls-1" points="191.36 9.79 195.81 9.79 195.81 15.8 201.52 15.8 201.52 9.79 205.97 9.79 205.97 25.85 201.52 25.85 201.52 19.75 195.81 19.75 195.81 25.85 191.36 25.85 191.36 9.79"/><path class="cls-1" d="M213.19,25.8l2.48-3a8.26,8.26,0,0,0,5.2,1.93c1.19,0,1.84-.41,1.84-1.1v-.05c0-.66-.53-1-2.71-1.54-3.42-.77-6.05-1.74-6.05-5V17c0-3,2.36-5.13,6.21-5.13a10.08,10.08,0,0,1,6.6,2.13l-2.22,3.14a8.06,8.06,0,0,0-4.5-1.58c-1.07,0-1.6.46-1.6,1v.05c0,.73.55,1.05,2.78,1.56,3.69.8,6,2,6,5v0c0,3.28-2.59,5.23-6.49,5.23a11.19,11.19,0,0,1-7.52-2.66" transform="translate(-5.6 -2.34)"/><path class="cls-1" d="M234.56,12h4.29l6.84,16.16h-4.77l-1.17-2.86h-6.19l-1.15,2.86h-4.68Zm3.9,9.84-1.79-4.57-1.81,4.57Z" transform="translate(-5.6 -2.34)"/><rect class="cls-1" x="241.21" y="22.84" width="3.05" height="3.01"/><path class="cls-1" d="M250.71,22V22a6.44,6.44,0,0,1,6.65-6.46,5.88,5.88,0,0,1,5.3,2.77l-3,2.2a2.67,2.67,0,0,0-2.31-1.3A2.57,2.57,0,0,0,255,22v0a2.57,2.57,0,0,0,2.48,2.82,3,3,0,0,0,2.39-1.28l2.91,2.11a6.16,6.16,0,0,1-5.53,2.84A6.4,6.4,0,0,1,250.71,22" transform="translate(-5.6 -2.34)"/><path class="cls-1" d="M263.64,24.63v0c0-2.57,1.95-3.9,4.87-3.9a9.61,9.61,0,0,1,3,.48V21c0-1.28-.81-2-2.48-2a8.84,8.84,0,0,0-3.42.69l-.89-3.07a12.35,12.35,0,0,1,5-1c2.23,0,3.74.53,4.73,1.52a5.18,5.18,0,0,1,1.33,3.94v7.13h-4.32V26.9a4.65,4.65,0,0,1-3.64,1.56c-2.36,0-4.18-1.35-4.18-3.83m7.89-.94v-.57a4.39,4.39,0,0,0-1.69-.32c-1.27,0-2,.62-2,1.53v.05a1.36,1.36,0,0,0,1.54,1.35,2,2,0,0,0,2.15-2" transform="translate(-5.6 -2.34)"/><rect class="cls-1" x="146.53" width="0.44" height="35.14"/><path class="cls-1" d="M40.67,18.22h-1V10.29h1.14c2.44,0,3.19.84,3.19,2.29,0,1.68-1.27,2.32-2.77,2.32h-.57Zm0-4.21H41c1,0,2.1-.19,2.1-1.45s-1.18-1.38-2.16-1.38h-.26Z" transform="translate(-5.6 -2.34)"/><path class="cls-1" d="M45.7,13.3V16c0,.79.2,1.49,1.14,1.49S48,16.81,48,16V13.3h1v2.83c0,1.35-.63,2.26-2.08,2.26s-2.09-.91-2.09-2.26V13.3Z" transform="translate(-5.6 -2.34)"/><path class="cls-1" d="M50.2,9.09h.95v5h0a2,2,0,0,1,1.72-1,2.41,2.41,0,0,1,2.31,2.58,2.42,2.42,0,0,1-2.36,2.66,2,2,0,0,1-1.67-.94h0v.77H50.2Zm4,6.67a1.59,1.59,0,1,0-3.15,0,1.59,1.59,0,1,0,3.15,0" transform="translate(-5.6 -2.34)"/><rect class="cls-1" x="50.68" y="6.76" width="0.95" height="9.13"/><path class="cls-1" d="M59.83,11.05a.66.66,0,0,1-1.31,0,.66.66,0,1,1,1.31,0m-.18,7.17H58.7V13.3h.95Z" transform="translate(-5.6 -2.34)"/><path class="cls-1" d="M64.73,14.7a1.79,1.79,0,0,0-1.4-.66,1.7,1.7,0,0,0-1.64,1.72,1.66,1.66,0,0,0,1.7,1.75,1.75,1.75,0,0,0,1.34-.66v1.21a2.75,2.75,0,0,1-1.35.33,2.59,2.59,0,0,1-2.64-2.59,2.7,2.7,0,0,1,4-2.32Z" transform="translate(-5.6 -2.34)"/><path class="cls-1" d="M73,11.8a1.36,1.36,0,0,0-1.27-.75,1.25,1.25,0,0,0-1.33,1.12c0,.63.61.95,1.1,1.14l.57.22c1.13.44,2,1.06,2,2.39a2.45,2.45,0,0,1-2.54,2.47A2.48,2.48,0,0,1,69,16.17L70,16a1.5,1.5,0,1,0,3,0c0-.86-.68-1.22-1.37-1.51l-.54-.23c-.91-.39-1.73-.9-1.73-2a2.17,2.17,0,0,1,2.34-2.05,2.26,2.26,0,0,1,2,1.2Z" transform="translate(-5.6 -2.34)"/><path class="cls-1" d="M75.72,15.92a1.55,1.55,0,0,0,1.48,1.63,1.6,1.6,0,0,0,1.47-1l.8.45a2.54,2.54,0,0,1-2.28,1.35,2.4,2.4,0,0,1-2.42-2.59,2.35,2.35,0,0,1,2.4-2.65c1.57,0,2.3,1.16,2.3,2.62v.15Zm2.81-.72A1.34,1.34,0,0,0,77.17,14a1.41,1.41,0,0,0-1.4,1.23Z" transform="translate(-5.6 -2.34)"/><path class="cls-1" d="M81.44,14.1h0a1.43,1.43,0,0,1,1.35-.95,1.55,1.55,0,0,1,.78.24l-.43.87a.82.82,0,0,0-.58-.2c-1,0-1.15.94-1.15,1.74v2.42H80.5V13.3h.94Z" transform="translate(-5.6 -2.34)"/><polygon class="cls-1" points="80.78 14.03 82.2 10.96 83.26 10.96 80.78 16.05 78.31 10.96 79.37 10.96 80.78 14.03"/><path class="cls-1" d="M90.77,11.05a.66.66,0,0,1-1.31,0,.66.66,0,1,1,1.31,0m-.18,7.17h-1V13.3h1Z" transform="translate(-5.6 -2.34)"/><path class="cls-1" d="M95.68,14.7A1.81,1.81,0,0,0,94.27,14a1.7,1.7,0,0,0-1.64,1.72,1.66,1.66,0,0,0,1.7,1.75,1.78,1.78,0,0,0,1.35-.66v1.21a2.76,2.76,0,0,1-1.36.33,2.59,2.59,0,0,1-2.64-2.59,2.62,2.62,0,0,1,2.69-2.65,2.68,2.68,0,0,1,1.31.33Z" transform="translate(-5.6 -2.34)"/><path class="cls-1" d="M97.39,15.92a1.55,1.55,0,0,0,1.48,1.63,1.62,1.62,0,0,0,1.48-1l.79.45a2.54,2.54,0,0,1-2.28,1.35,2.4,2.4,0,0,1-2.42-2.59,2.35,2.35,0,0,1,2.4-2.65c1.57,0,2.3,1.16,2.3,2.62v.15Zm2.81-.72A1.34,1.34,0,0,0,98.84,14a1.42,1.42,0,0,0-1.4,1.23Z" transform="translate(-5.6 -2.34)"/><path class="cls-1" d="M104.08,14.42a.74.74,0,0,0-.63-.43.52.52,0,0,0-.52.49c0,.43.57.62,1.15.88s1.13.62,1.13,1.4a1.64,1.64,0,0,1-1.69,1.63,1.81,1.81,0,0,1-1.7-1.11l.81-.36a1,1,0,0,0,.89.63.71.71,0,0,0,.75-.7.59.59,0,0,0-.35-.53l-.92-.5c-.55-.29-1-.56-1-1.24a1.43,1.43,0,0,1,1.45-1.43,1.47,1.47,0,0,1,1.35.86Z" transform="translate(-5.6 -2.34)"/><polygon class="cls-1" points="108.89 11.15 108.89 7.95 109.88 7.95 109.88 15.88 108.89 15.88 108.89 12.08 105.12 12.08 105.12 15.88 104.13 15.88 104.13 7.95 105.12 7.95 105.12 11.15 108.89 11.15"/><path class="cls-1" d="M117.55,15.92A1.55,1.55,0,0,0,119,17.55a1.6,1.6,0,0,0,1.47-1l.8.45A2.54,2.54,0,0,1,119,18.39a2.4,2.4,0,0,1-2.42-2.59,2.35,2.35,0,0,1,2.4-2.65c1.57,0,2.3,1.16,2.3,2.62v.15Zm2.81-.72A1.34,1.34,0,0,0,119,14a1.41,1.41,0,0,0-1.4,1.23Z" transform="translate(-5.6 -2.34)"/><path class="cls-1" d="M127,18.22h-1v-.77h0a2,2,0,0,1-1.67.94A2.43,2.43,0,0,1,122,15.73a2.42,2.42,0,0,1,2.33-2.58,2,2,0,0,1,1.7,1h0V13.3h1Zm-.9-2.46A1.61,1.61,0,0,0,124.48,14a1.63,1.63,0,0,0-1.56,1.77,1.63,1.63,0,0,0,1.56,1.79,1.62,1.62,0,0,0,1.59-1.79" transform="translate(-5.6 -2.34)"/><rect class="cls-1" x="122.71" y="6.76" width="0.95" height="9.13"/><polygon class="cls-1" points="126.14 15.88 125.19 15.88 125.19 11.85 124.67 11.85 124.67 10.96 125.19 10.96 125.19 9.08 126.14 9.08 126.14 10.96 127.06 10.96 127.06 11.85 126.14 11.85 126.14 15.88"/><path class="cls-1" d="M134.28,9.09V14h0a1.68,1.68,0,0,1,1.48-.81c1.39,0,1.75.94,1.75,2.14v2.93h-.95V15.4c0-.84-.12-1.41-1.08-1.41-1.22,0-1.22,1.07-1.22,2v2.26h-.95V9.09Z" transform="translate(-5.6 -2.34)"/><path class="cls-1" d="M44.29,28.83a3.2,3.2,0,0,1-2.38,1.24,2.35,2.35,0,0,1-2.43-2.33,2.56,2.56,0,0,1,1.39-2.11l.49-.35a2.68,2.68,0,0,1-.87-1.74,1.84,1.84,0,0,1,3.66-.08c0,.89-.78,1.49-1.44,2l1.65,2,.93-1.07.63.65-1,1.14,1.42,1.75H45.15Zm-2.44-2.78c-.55.38-1.44.92-1.44,1.68a1.54,1.54,0,0,0,1.47,1.46,2.78,2.78,0,0,0,1.82-1.05L41.94,26Zm.43-1.39c.4-.31.95-.64.95-1.21a.91.91,0,0,0-1.81,0,1.62,1.62,0,0,0,.47,1l.26.34Z" transform="translate(-5.6 -2.34)"/><path class="cls-1" d="M54.05,23.48a1.37,1.37,0,0,0-1.28-.75,1.25,1.25,0,0,0-1.32,1.13c0,.62.61.94,1.1,1.13l.57.22c1.13.44,2,1.06,2,2.39a2.45,2.45,0,0,1-2.54,2.47,2.48,2.48,0,0,1-2.45-2.22l1-.21a1.5,1.5,0,1,0,3,0c0-.85-.68-1.22-1.37-1.5l-.54-.23c-.91-.4-1.73-.91-1.73-2A2.17,2.17,0,0,1,52.8,21.8a2.29,2.29,0,0,1,2,1.2Z" transform="translate(-5.6 -2.34)"/><path class="cls-1" d="M60.87,29.9h-.95v-.76h0a2,2,0,0,1-1.67.93,2.43,2.43,0,0,1-2.36-2.66,2.41,2.41,0,0,1,2.33-2.58,2,2,0,0,1,1.7,1h0V25h.95ZM60,27.44a1.61,1.61,0,0,0-1.59-1.77,1.64,1.64,0,0,0-1.56,1.77,1.63,1.63,0,0,0,1.56,1.79A1.62,1.62,0,0,0,60,27.44" transform="translate(-5.6 -2.34)"/><path class="cls-1" d="M64.61,21.73a1.85,1.85,0,0,0-.63-.2c-.67,0-.67.85-.67,1.34V25h1.3v.89h-1.3v4h-1v-4h-.43V25h.43v-2.4c0-1.07.37-1.93,1.59-1.93a1.84,1.84,0,0,1,.66.12Z" transform="translate(-5.6 -2.34)"/><path class="cls-1" d="M65.87,27.6a1.55,1.55,0,0,0,1.48,1.63,1.6,1.6,0,0,0,1.47-1l.8.46a2.55,2.55,0,0,1-2.28,1.34,2.4,2.4,0,0,1-2.42-2.59,2.35,2.35,0,0,1,2.4-2.65c1.57,0,2.3,1.16,2.3,2.62v.15Zm2.81-.71a1.34,1.34,0,0,0-1.36-1.24,1.41,1.41,0,0,0-1.4,1.24Z" transform="translate(-5.6 -2.34)"/><polygon class="cls-1" points="66.05 27.57 65.11 27.57 65.11 23.53 64.59 23.53 64.59 22.64 65.11 22.64 65.11 20.76 66.05 20.76 66.05 22.64 66.98 22.64 66.98 23.53 66.05 23.53 66.05 27.57"/><polygon class="cls-1" points="67.28 22.64 68.38 22.64 70.04 25.77 71.59 22.64 72.65 22.64 68.66 30.38 67.59 30.38 69.53 26.72 67.28 22.64"/><path class="cls-1" d="M83.54,27.91l-.9,2H81.58l3.78-8.27,3.79,8.27H88.09l-.91-2Zm1.82-4.11L84,27h2.82Z" transform="translate(-5.6 -2.34)"/><path class="cls-1" d="M91.8,26.11a.72.72,0,0,0-.63-.44.52.52,0,0,0-.51.49c0,.43.56.62,1.14.88s1.14.62,1.14,1.4a1.65,1.65,0,0,1-1.69,1.63A1.83,1.83,0,0,1,89.54,29l.81-.37a1,1,0,0,0,.9.63.7.7,0,0,0,.74-.69.59.59,0,0,0-.34-.54l-.93-.49c-.55-.3-1-.57-1-1.25a1.44,1.44,0,0,1,1.45-1.43,1.46,1.46,0,0,1,1.35.86Z" transform="translate(-5.6 -2.34)"/><path class="cls-1" d="M95.92,26.11a.75.75,0,0,0-.63-.44.52.52,0,0,0-.52.49c0,.43.57.62,1.15.88s1.14.62,1.14,1.4a1.65,1.65,0,0,1-1.7,1.63,1.81,1.81,0,0,1-1.7-1.1l.81-.37a1,1,0,0,0,.89.63.71.71,0,0,0,.75-.69c0-.27-.13-.39-.35-.54l-.92-.49c-.55-.3-1-.57-1-1.25a1.43,1.43,0,0,1,1.45-1.43,1.47,1.47,0,0,1,1.35.86Z" transform="translate(-5.6 -2.34)"/><path class="cls-1" d="M103,27.45a2.63,2.63,0,1,1-2.63-2.62A2.59,2.59,0,0,1,103,27.45m-4.31,0a1.68,1.68,0,1,0,1.68-1.71,1.71,1.71,0,0,0-1.68,1.71" transform="translate(-5.6 -2.34)"/><path class="cls-1" d="M107.61,26.38a1.79,1.79,0,0,0-1.41-.66,1.7,1.7,0,0,0-1.64,1.72,1.67,1.67,0,0,0,1.71,1.75,1.79,1.79,0,0,0,1.34-.65v1.2a2.65,2.65,0,0,1-1.35.33,2.59,2.59,0,0,1-2.64-2.59,2.7,2.7,0,0,1,4-2.32Z" transform="translate(-5.6 -2.34)"/><path class="cls-1" d="M110,22.73a.66.66,0,0,1-1.31,0,.66.66,0,1,1,1.31,0m-.18,7.17h-1V25h1Z" transform="translate(-5.6 -2.34)"/><path class="cls-1" d="M115.9,29.9h-1v-.76h0a2,2,0,0,1-1.67.93,2.43,2.43,0,0,1-2.35-2.66,2.41,2.41,0,0,1,2.32-2.58,2,2,0,0,1,1.7,1h0V25h1ZM115,27.44a1.62,1.62,0,0,0-1.6-1.77,1.64,1.64,0,0,0-1.56,1.77,1.59,1.59,0,1,0,3.16,0" transform="translate(-5.6 -2.34)"/><polygon class="cls-1" points="112.73 27.57 111.78 27.57 111.78 23.53 111.27 23.53 111.27 22.64 111.78 22.64 111.78 20.76 112.73 20.76 112.73 22.64 113.65 22.64 113.65 23.53 112.73 23.53 112.73 27.57"/><path class="cls-1" d="M121.15,22.73a.65.65,0,0,1-1.3,0,.65.65,0,1,1,1.3,0M121,29.9H120V25H121Z" transform="translate(-5.6 -2.34)"/><path class="cls-1" d="M127.29,27.45a2.63,2.63,0,1,1-2.63-2.62,2.58,2.58,0,0,1,2.63,2.62m-4.31,0a1.69,1.69,0,1,0,1.68-1.71A1.71,1.71,0,0,0,123,27.45" transform="translate(-5.6 -2.34)"/><path class="cls-1" d="M129.24,25.64h0a1.71,1.71,0,0,1,1.49-.81c1.38,0,1.74.94,1.74,2.14V29.9h-.94V27.09c0-.85-.12-1.42-1.09-1.42-1.22,0-1.22,1.08-1.22,2V29.9h-.94V25h.94Z" transform="translate(-5.6 -2.34)"/><path class="cls-1" d="M135.68,25.26H135v1.65h-.28V25.26h-.64V25h1.56Zm2.42,1.65h-.28V25.26h0l-.66,1.65H137l-.64-1.65h0v1.65h-.27V25h.46l.56,1.39.57-1.39h.46Z" transform="translate(-5.6 -2.34)"/><path class="cls-1" d="M29.18,18.2l-.38-.08a5.38,5.38,0,0,1,2.54,6.11l-1.41,5.22-5.1-1.38A5.31,5.31,0,0,1,21,22.74c-.05.13-.09.25-.13.38a6.86,6.86,0,0,0,4.75,8.46l6.55,1.77,1.81-6.69a6.87,6.87,0,0,0-4.75-8.46" transform="translate(-5.6 -2.34)"/><path class="cls-1" d="M13.79,21.79,10,18.07l3.71-3.76a5.27,5.27,0,0,1,3.43-1.55c.74,0,1.06.68,1.34,1.61l.41,1.45.09.29a0,0,0,0,1,0,0h0a2.94,2.94,0,0,0,3.84,1.78l.17-.08a2.35,2.35,0,0,1-2.51-1.77l-.68-2.4,2.31-.93a2.31,2.31,0,0,1,2.81,1c0-.06,0-.12,0-.18a3,3,0,0,0-3.18-2.16h0c-.31,0-.29-.23-.26-.36a5.28,5.28,0,0,1,3.58-3.23l5.11-1.36,1.09,4.11c.11.4-.27.6-.91.54l-.52-.1h-.07l-.62-.12a3.21,3.21,0,0,0-3.68,2.64c0,.07,0,.13,0,.19a2.48,2.48,0,0,1,2.69-1.49l2.4.46-.44,2.58a2.62,2.62,0,0,1-2.33,2.23l.18.05a2.82,2.82,0,0,0,1,0h0l.3-.06h0a6.8,6.8,0,0,0,4.82-8.3L32.38,2.64,25.82,4.38a6.78,6.78,0,0,0-5,7h0a.44.44,0,0,1-.3.46l-.93.37a1.26,1.26,0,0,1-1.07-.07l-.09,0a6.79,6.79,0,0,0-8,1.21L5.6,18.1l4.82,4.77a6.77,6.77,0,0,0,9.6-.06l.26-.28a5.29,5.29,0,0,1-6.49-.74" transform="translate(-5.6 -2.34)"/><path class="cls-1" d="M23.16,18.41a3.05,3.05,0,0,0,.19,4.43L25.81,25,28,22.52a3.06,3.06,0,0,0-.32-4.44L27.55,18a2.36,2.36,0,0,1-.17,3l-1.69,1.89-1.9-1.63a2.34,2.34,0,0,1-.5-2.95l-.13.13" transform="translate(-5.6 -2.34)"/></svg>